<svg width="32.000000" height="32.000000" viewBox="0 0 32 32" fill="none" xmlns="http://www.w3.org/2000/svg" xmlns:xlink="http://www.w3.org/1999/xlink">
	<desc>
			Created with Pixso.
	</desc>
	<defs>
		<clipPath id="clip1338_181">
			<rect id="cart" width="32.000000" height="32.000000" fill="white" fill-opacity="0"/>
		</clipPath>
	</defs>
	<rect id="cart" width="32.000000" height="32.000000" fill="#FFFFFF" fill-opacity="0"/>
	<g clip-path="url(#clip1338_181)">
		<path id="Vector" d="M15.99 0.66C14.4 0.66 12.88 1.29 11.75 2.42C10.63 3.54 9.99 5.07 9.99 6.66L9.99 8.66L6.66 8.66C5.78 8.66 4.93 9.01 4.3 9.64C3.68 10.26 3.33 11.11 3.33 12L3.33 25.33C3.33 26.92 3.96 28.45 5.08 29.57C6.21 30.7 7.74 31.33 9.33 31.33L22.66 31.33C24.25 31.33 25.78 30.7 26.9 29.57C28.03 28.45 28.66 26.92 28.66 25.33L28.66 12C28.66 11.11 28.31 10.26 27.68 9.64C27.06 9.01 26.21 8.66 25.33 8.66L21.99 8.66L21.99 6.66C21.99 5.07 21.36 3.54 20.24 2.42C19.11 1.29 17.58 0.66 15.99 0.66ZM15.99 2C14.76 2 13.57 2.49 12.69 3.36C11.82 4.24 11.33 5.42 11.33 6.66L11.33 14.66C11.33 14.84 11.26 15.01 11.13 15.13C11.01 15.26 10.84 15.33 10.66 15.33C10.48 15.33 10.31 15.26 10.19 15.13C10.06 15.01 9.99 14.84 9.99 14.66L9.99 10L6.66 10C6.13 10 5.62 10.21 5.25 10.58C4.87 10.96 4.66 11.46 4.66 12L4.66 25.33C4.66 26.57 5.15 27.75 6.03 28.63C6.9 29.5 8.09 29.99 9.33 30L22.66 30C23.27 30 23.88 29.87 24.45 29.64C25.01 29.41 25.53 29.06 25.96 28.63C26.39 28.2 26.74 27.68 26.97 27.11C27.21 26.55 27.33 25.94 27.33 25.33L27.33 12C27.33 11.46 27.12 10.96 26.74 10.58C26.37 10.21 25.86 10 25.33 10L21.99 10L21.99 14.66C21.99 14.84 21.92 15.01 21.8 15.13C21.67 15.26 21.5 15.33 21.33 15.33C21.15 15.33 20.98 15.26 20.86 15.13C20.73 15.01 20.66 14.84 20.66 14.66L20.66 10L13.33 10C13.15 10 12.98 9.92 12.86 9.8C12.73 9.67 12.66 9.51 12.66 9.33C12.66 9.15 12.73 8.98 12.86 8.86C12.98 8.73 13.15 8.66 13.33 8.66L20.66 8.66L20.66 6.66C20.66 5.42 20.17 4.24 19.29 3.36C18.42 2.49 17.23 2 15.99 2Z" fill="#000000" fill-opacity="1.000000" fill-rule="evenodd"/>
	</g>
</svg>
