<svg width="56.000000" height="56.000000" viewBox="0 0 56 56" fill="none" xmlns="http://www.w3.org/2000/svg" xmlns:xlink="http://www.w3.org/1999/xlink">
	<desc>
			Created with Pixso.
	</desc>
	<defs>
		<clipPath id="clip1341_281">
			<rect id="icon delivery" width="56.000000" height="56.000000" transform="translate(-0.500000 0.000000)" fill="white" fill-opacity="0"/>
		</clipPath>
	</defs>
	<rect id="icon delivery" width="56.000000" height="56.000000" transform="translate(-0.500000 0.000000)" fill="#FFFFFF" fill-opacity="0"/>
	<g clip-path="url(#clip1341_281)">
		<path id="Vector" d="M10 45.36L4.02 45.36C3.55 45.36 3.1 45.27 2.67 45.1C2.24 44.92 1.85 44.67 1.53 44.35C1.2 44.02 0.94 43.64 0.76 43.22C0.59 42.8 0.5 42.35 0.5 41.89L0.5 9.47C0.5 8.55 0.87 7.66 1.53 7.01C1.85 6.69 2.24 6.43 2.67 6.26C3.1 6.08 3.55 5.99 4.02 6L32.19 6C33.13 6 34.02 6.36 34.68 7.01C35.34 7.66 35.71 8.55 35.71 9.47L35.71 14.1C35.71 14.41 35.59 14.7 35.37 14.92C35.15 15.14 34.85 15.26 34.54 15.26C34.23 15.26 33.93 15.14 33.71 14.92C33.49 14.7 33.36 14.41 33.36 14.1L33.36 9.47C33.36 9.32 33.33 9.17 33.28 9.03C33.22 8.88 33.13 8.76 33.02 8.65C32.91 8.54 32.78 8.46 32.64 8.4C32.5 8.34 32.34 8.31 32.19 8.31L4.02 8.31C3.86 8.31 3.71 8.34 3.57 8.4C3.42 8.46 3.29 8.54 3.19 8.65C3.08 8.76 2.99 8.88 2.93 9.03C2.87 9.17 2.84 9.32 2.84 9.47L2.84 41.89C2.84 42.04 2.87 42.19 2.93 42.33C2.99 42.47 3.08 42.6 3.19 42.71C3.29 42.82 3.42 42.9 3.57 42.96C3.71 43.02 3.86 43.05 4.02 43.05L10 43.05C10.55 40.41 12.92 38.42 15.76 38.42C18.59 38.42 20.96 40.41 21.51 43.05L33.36 43.05L33.36 18.73C33.36 18.42 33.49 18.13 33.71 17.91C33.93 17.7 34.23 17.57 34.54 17.57L42.96 17.57C43.89 17.57 44.79 17.94 45.45 18.59L53.46 26.5C54.12 27.15 54.5 28.03 54.5 28.95L54.5 41.89C54.5 42.81 54.12 43.69 53.46 44.35C52.8 45 51.91 45.36 50.97 45.36L49.68 45.36C49.14 48 46.77 50 43.93 50C41.09 50 38.72 48 38.18 45.36L21.51 45.36C20.96 48 18.59 50 15.76 50C12.92 50 10.55 48 10 45.36ZM15.76 40.73C16.67 40.76 17.55 41.13 18.19 41.78C18.83 42.43 19.19 43.3 19.19 44.21C19.19 45.11 18.83 45.98 18.19 46.63C17.55 47.28 16.67 47.66 15.76 47.68C14.84 47.66 13.97 47.28 13.32 46.63C12.68 45.98 12.32 45.11 12.32 44.21C12.32 43.3 12.68 42.43 13.32 41.78C13.97 41.13 14.84 40.76 15.76 40.73ZM43.93 40.73C44.85 40.76 45.72 41.13 46.36 41.78C47 42.43 47.36 43.3 47.36 44.21C47.36 45.11 47 45.98 46.36 46.63C45.72 47.28 44.85 47.66 43.93 47.68C43.01 47.66 42.14 47.28 41.5 46.63C40.86 45.98 40.5 45.11 40.5 44.21C40.5 43.3 40.86 42.43 41.5 41.78C42.14 41.13 43.01 40.76 43.93 40.73ZM49.68 43.05L50.97 43.05C51.28 43.05 51.58 42.93 51.8 42.71C52.02 42.49 52.15 42.2 52.15 41.89L52.15 33.78L41.58 33.78C40.65 33.78 39.75 33.42 39.09 32.77C38.43 32.12 38.06 31.23 38.06 30.31L38.06 25.68C38.06 24.76 38.43 23.87 39.09 23.22C39.75 22.57 40.65 22.21 41.58 22.21L45.79 22.21L43.79 20.23C43.57 20.01 43.27 19.89 42.96 19.89L35.71 19.89L35.71 43.05L38.18 43.05C38.72 40.41 41.09 38.42 43.93 38.42C46.77 38.42 49.14 40.41 49.68 43.05ZM48.14 24.52L41.58 24.52C41.27 24.52 40.97 24.64 40.75 24.86C40.53 25.08 40.41 25.37 40.41 25.68L40.41 30.31C40.41 30.62 40.53 30.91 40.75 31.13C40.97 31.35 41.27 31.47 41.58 31.47L52.15 31.47L52.15 28.95C52.15 28.65 52.02 28.35 51.8 28.14L48.14 24.52Z" fill="#000000" fill-opacity="1.000000" fill-rule="evenodd"/>
	</g>
</svg>
