<svg width="56.000000" height="56.000000" viewBox="0 0 56 56" fill="none" xmlns="http://www.w3.org/2000/svg" xmlns:xlink="http://www.w3.org/1999/xlink">
	<desc>
			Created with Pixso.
	</desc>
	<defs>
		<clipPath id="clip1341_284">
			<rect id="icon nature" width="56.000000" height="56.000000" transform="translate(-0.500000 0.000000)" fill="white" fill-opacity="0"/>
		</clipPath>
	</defs>
	<rect id="icon nature" width="56.000000" height="56.000000" transform="translate(-0.500000 0.000000)" fill="#FFFFFF" fill-opacity="0"/>
	<g clip-path="url(#clip1341_284)">
		<path id="Vector" d="M25.22 11.45C25.21 11.45 25.21 11.45 25.21 11.45C18.91 14.12 14.5 20.26 14.5 27.41C14.5 34.98 19.44 41.42 26.34 43.8L26.34 43.81C27.09 44.06 27.9 44.06 28.65 43.81L28.65 43.8C35.55 41.42 40.5 34.98 40.5 27.41C40.5 20.26 36.08 14.12 29.79 11.45L29.77 11.45C29.05 11.15 28.28 10.99 27.5 11C26.71 11 25.94 11.15 25.22 11.45ZM28.68 41.31C34.23 39.04 38.13 33.67 38.13 27.41C38.13 21.22 34.31 15.89 28.85 13.58C28.42 13.4 27.96 13.31 27.5 13.31C27.03 13.31 26.57 13.4 26.14 13.58C20.68 15.89 16.86 21.22 16.86 27.41C16.86 33.67 20.76 39.04 26.31 41.31L26.31 37.16L21.93 32.86C21.72 32.64 21.6 32.35 21.6 32.05C21.6 31.74 21.73 31.45 21.95 31.24C22.17 31.02 22.46 30.9 22.77 30.9C23.08 30.9 23.38 31.01 23.6 31.22L26.31 33.88L26.31 30.21L21.93 25.91C21.72 25.69 21.6 25.4 21.6 25.1C21.6 24.79 21.73 24.5 21.95 24.29C22.17 24.07 22.46 23.95 22.77 23.95C23.08 23.95 23.38 24.06 23.6 24.27L26.31 26.93L26.31 23.26L23.11 20.12C22.9 19.9 22.78 19.61 22.78 19.31C22.79 19 22.91 18.71 23.13 18.5C23.35 18.28 23.64 18.16 23.95 18.16C24.26 18.15 24.56 18.27 24.79 18.48L27.5 21.14L30.21 18.48C30.43 18.27 30.73 18.15 31.04 18.16C31.35 18.16 31.64 18.28 31.86 18.5C32.08 18.71 32.21 19 32.21 19.31C32.21 19.61 32.09 19.9 31.88 20.12L28.68 23.26L28.68 26.93L31.39 24.27C31.61 24.06 31.91 23.95 32.22 23.95C32.53 23.95 32.82 24.07 33.04 24.29C33.26 24.5 33.39 24.79 33.39 25.1C33.39 25.4 33.27 25.69 33.06 25.91L28.68 30.21L28.68 33.88L31.39 31.22C31.61 31.01 31.91 30.9 32.22 30.9C32.53 30.9 32.82 31.02 33.04 31.24C33.26 31.45 33.39 31.74 33.39 32.05C33.39 32.35 33.27 32.64 33.06 32.86L28.68 37.16L28.68 41.31Z" fill="#000000" fill-opacity="1.000000" fill-rule="evenodd"/>
		<path id="Vector" d="M45.27 45.07L45.27 41.28C45.27 40.97 45.15 40.67 44.93 40.45C44.71 40.23 44.41 40.1 44.1 40.1C43.79 40.1 43.49 40.23 43.27 40.45C43.05 40.67 42.92 40.97 42.92 41.28L42.92 47.92C42.92 48.23 43.05 48.53 43.27 48.75C43.49 48.97 43.79 49.09 44.1 49.09L50.74 49.09C51.04 49.08 51.33 48.95 51.53 48.73C51.74 48.51 51.86 48.22 51.86 47.92C51.86 47.61 51.74 47.32 51.53 47.11C51.33 46.89 51.04 46.76 50.74 46.74L46.92 46.74C51.79 41.72 54.5 34.99 54.5 28C54.5 13.09 42.4 1 27.5 1C23.08 1 18.9 2.06 15.22 3.94C14.94 4.09 14.73 4.33 14.64 4.63C14.54 4.92 14.57 5.25 14.71 5.52C14.85 5.8 15.1 6.01 15.4 6.11C15.69 6.2 16.01 6.18 16.29 6.03C19.76 4.26 23.6 3.34 27.5 3.34C41.1 3.34 52.15 14.39 52.15 28C52.15 34.36 49.69 40.48 45.27 45.07ZM8.07 9.25C3.2 14.27 0.49 21 0.5 28C0.5 42.9 12.59 55 27.5 55C31.91 55 36.09 53.93 39.77 52.05C40.05 51.9 40.26 51.66 40.35 51.36C40.45 51.07 40.42 50.74 40.28 50.47C40.14 50.19 39.89 49.98 39.59 49.88C39.3 49.79 38.98 49.81 38.7 49.96C35.23 51.73 31.39 52.65 27.5 52.65C13.89 52.65 2.84 41.6 2.84 28C2.84 21.63 5.3 15.51 9.72 10.92L9.72 14.71C9.72 15.02 9.84 15.32 10.06 15.54C10.28 15.76 10.58 15.89 10.89 15.89C11.21 15.89 11.5 15.76 11.72 15.54C11.94 15.32 12.07 15.02 12.07 14.71L12.07 8.07C12.07 7.76 11.94 7.46 11.72 7.24C11.5 7.02 11.21 6.9 10.89 6.9L4.25 6.9C3.95 6.91 3.66 7.04 3.46 7.26C3.25 7.48 3.13 7.77 3.13 8.07C3.13 8.38 3.25 8.67 3.46 8.88C3.66 9.1 3.95 9.23 4.25 9.25L8.07 9.25Z" fill="#000000" fill-opacity="1.000000" fill-rule="evenodd"/>
	</g>
</svg>
