<svg width="32.000000" height="32.000000" viewBox="0 0 32 32" fill="none" xmlns="http://www.w3.org/2000/svg" xmlns:xlink="http://www.w3.org/1999/xlink">
	<desc>
			Created with Pixso.
	</desc>
	<defs>
		<clipPath id="clip1338_167">
			<rect id="phone" width="32.000000" height="32.000000" fill="white" fill-opacity="0"/>
		</clipPath>
	</defs>
	<rect id="phone" width="32.000000" height="32.000000" fill="#FFFFFF" fill-opacity="0"/>
	<g clip-path="url(#clip1338_167)">
		<path id="Vector" d="M10.26 12.56L13.41 9.41C13.6 9.22 13.74 9 13.84 8.76C13.94 8.52 14 8.26 14 8C14 7.73 13.94 7.47 13.84 7.23C13.74 6.99 13.6 6.77 13.41 6.58L8.08 1.25C7.89 1.06 7.67 0.91 7.43 0.81C7.18 0.71 6.92 0.66 6.66 0.66C6.4 0.66 6.14 0.71 5.9 0.81C5.65 0.91 5.43 1.06 5.25 1.25L2.25 4.24C1.69 4.81 1.28 5.5 1.06 6.27C0.85 7.04 0.83 7.85 1.01 8.62L1.02 8.64C1.7 11.37 3.69 17.19 9.25 22.74C14.8 28.3 20.62 30.29 23.35 30.97L23.37 30.98C24.15 31.16 24.95 31.14 25.72 30.92C26.49 30.71 27.18 30.3 27.75 29.74C28.93 28.55 30.74 26.74 30.74 26.74C30.93 26.56 31.08 26.34 31.18 26.09C31.28 25.85 31.33 25.59 31.33 25.33C31.33 25.07 31.28 24.81 31.18 24.56C31.08 24.32 30.93 24.1 30.74 23.91L25.41 18.58C25.22 18.4 25 18.25 24.76 18.15C24.52 18.05 24.26 17.99 24 17.99C23.73 17.99 23.47 18.05 23.23 18.15C22.99 18.25 22.77 18.4 22.58 18.58L19.43 21.73C18.34 21.3 16.42 20.26 14.08 17.91C11.73 15.57 10.7 13.65 10.26 12.56ZM7.13 2.19L12.47 7.52C12.53 7.59 12.58 7.66 12.61 7.74C12.65 7.82 12.66 7.91 12.66 8C12.66 8.08 12.65 8.17 12.61 8.25C12.58 8.33 12.53 8.4 12.47 8.47L9.11 11.83C8.75 12.18 8.84 12.58 8.85 12.61C9.21 13.66 10.25 15.98 13.13 18.86C16.02 21.74 18.33 22.78 19.38 23.14C19.5 23.18 19.62 23.19 19.75 23.16C19.87 23.13 19.98 23.07 20.07 22.98L23.52 19.52C23.59 19.46 23.66 19.41 23.74 19.38C23.82 19.35 23.91 19.33 24 19.33C24.08 19.33 24.17 19.35 24.25 19.38C24.33 19.41 24.41 19.46 24.47 19.52L29.8 24.86C29.86 24.92 29.91 24.99 29.95 25.07C29.98 25.15 30 25.24 30 25.33C30 25.42 29.98 25.5 29.95 25.58C29.91 25.66 29.86 25.74 29.8 25.8C29.8 25.8 27.99 27.61 26.8 28.79L26.8 28.79C26.4 29.19 25.9 29.49 25.35 29.64C24.8 29.8 24.23 29.81 23.67 29.68C21.06 29.03 15.5 27.11 10.19 21.8C4.88 16.49 2.96 10.93 2.31 8.32L2.31 8.31C2.18 7.76 2.19 7.18 2.35 6.63C2.5 6.09 2.79 5.59 3.2 5.19L6.19 2.19C6.25 2.13 6.33 2.08 6.41 2.05C6.49 2.01 6.58 1.99 6.66 1.99C6.75 1.99 6.84 2.01 6.92 2.05C7 2.08 7.07 2.13 7.13 2.19Z" fill="#000000" fill-opacity="1.000000" fill-rule="evenodd"/>
	</g>
</svg>
