<svg width="32.000000" height="32.000000" viewBox="0 0 32 32" fill="none" xmlns="http://www.w3.org/2000/svg" xmlns:xlink="http://www.w3.org/1999/xlink">
	<desc>
			Created with Pixso.
	</desc>
	<defs>
		<clipPath id="clip1338_174">
			<rect id="lk" width="32.000000" height="32.000000" fill="white" fill-opacity="0"/>
		</clipPath>
	</defs>
	<rect id="lk" width="32.000000" height="32.000000" fill="#FFFFFF" fill-opacity="0"/>
	<g clip-path="url(#clip1338_174)">
		<path id="Vector" d="M16 16.66L17.33 16.66C20.33 16.66 23.22 17.86 25.34 19.98C27.47 22.11 28.66 24.99 28.66 28L28.66 29.33C28.66 29.51 28.59 29.67 28.47 29.8C28.34 29.92 28.17 30 28 30L4 30C3.82 30 3.65 29.92 3.52 29.8C3.4 29.67 3.33 29.51 3.33 29.33L3.33 28C3.33 25.72 4.01 23.5 5.29 21.63C6.56 19.75 8.37 18.3 10.49 17.46C10.65 17.39 10.78 17.27 10.85 17.1C10.92 16.94 10.93 16.76 10.86 16.59C10.8 16.43 10.67 16.3 10.51 16.23C10.34 16.16 10.16 16.15 10 16.22C7.63 17.15 5.61 18.78 4.18 20.88C2.76 22.98 2 25.46 2 28L2 29.33C2 29.86 2.21 30.37 2.58 30.74C2.96 31.12 3.46 31.33 4 31.33L28 31.33C28.53 31.33 29.03 31.12 29.41 30.74C29.78 30.37 30 29.86 30 29.33L30 28C30 25.09 29 22.28 27.17 20.03C25.35 17.77 22.8 16.21 19.97 15.61C21.19 14.91 22.21 13.9 22.91 12.68C23.62 11.46 24 10.07 24 8.66C24 4.25 20.41 0.66 16 0.66C11.58 0.66 8 4.25 8 8.66C8 13.08 11.58 16.66 16 16.66ZM16 2C19.67 2 22.66 4.98 22.66 8.66C22.66 12.34 19.67 15.33 16 15.33C12.32 15.33 9.33 12.34 9.33 8.66C9.33 4.98 12.32 2 16 2Z" fill="#000000" fill-opacity="1.000000" fill-rule="evenodd"/>
	</g>
</svg>
