<svg width="32.000000" height="32.000000" viewBox="0 0 32 32" fill="none" xmlns="http://www.w3.org/2000/svg" xmlns:xlink="http://www.w3.org/1999/xlink">
	<desc>
			Created with Pixso.
	</desc>
	<defs>
		<clipPath id="clip1338_160">
			<rect id="search" width="32.000000" height="32.000000" fill="white" fill-opacity="0"/>
		</clipPath>
	</defs>
	<rect id="search" width="32.000000" height="32.000000" fill="#FFFFFF" fill-opacity="0"/>
	<g clip-path="url(#clip1338_160)">
		<path id="Vector" d="M21.29 23.18L23.25 25.13L23.72 25.6L24.19 26.08L27.72 29.6C27.84 29.73 27.99 29.83 28.15 29.9C28.32 29.97 28.49 30.01 28.67 30.01C28.84 30.01 29.02 29.98 29.18 29.91C29.35 29.85 29.5 29.75 29.62 29.62C29.75 29.5 29.85 29.35 29.91 29.18C29.98 29.02 30.01 28.84 30.01 28.67C30.01 28.49 29.97 28.31 29.9 28.15C29.83 27.99 29.73 27.84 29.61 27.72L26.08 24.19L25.61 23.72L25.13 23.25L24.55 22.66C24.42 22.53 24.36 22.36 24.36 22.19C24.36 22.01 24.43 21.85 24.55 21.72C24.68 21.6 24.84 21.53 25.02 21.53C25.19 21.53 25.36 21.59 25.49 21.72L30.55 26.78C31.59 27.82 31.59 29.51 30.55 30.55C29.51 31.59 27.82 31.59 26.78 30.55L20.2 23.97C18.22 25.25 15.86 26 13.33 26C6.34 26 0.66 20.32 0.66 13.33C0.66 6.34 6.34 0.66 13.33 0.66C20.32 0.66 26 6.34 26 13.33C26 17.3 24.16 20.85 21.29 23.18ZM24.66 13.33C24.66 7.07 19.58 2 13.33 2C7.07 2 2 7.07 2 13.33C2 19.58 7.07 24.66 13.33 24.66C19.58 24.66 24.66 19.58 24.66 13.33Z" fill="#000000" fill-opacity="1.000000" fill-rule="evenodd"/>
	</g>
</svg>
