<svg width="56.000000" height="56.000000" viewBox="0 0 56 56" fill="none" xmlns="http://www.w3.org/2000/svg" xmlns:xlink="http://www.w3.org/1999/xlink">
	<desc>
			Created with Pixso.
	</desc>
	<defs>
		<clipPath id="clip1341_277">
			<rect id="icon card" width="56.000000" height="56.000000" transform="translate(-0.500000 0.000000)" fill="white" fill-opacity="0"/>
		</clipPath>
	</defs>
	<rect id="icon card" width="56.000000" height="56.000000" transform="translate(-0.500000 0.000000)" fill="#FFFFFF" fill-opacity="0"/>
	<g clip-path="url(#clip1341_277)">
		<path id="Vector" d="M54.5 16.83C54.5 15.28 53.88 13.8 52.78 12.7C51.67 11.61 50.18 11 48.63 11L6.36 11C4.81 11 3.32 11.61 2.21 12.7C1.11 13.8 0.5 15.28 0.5 16.83L0.5 40.16C0.5 41.71 1.11 43.19 2.21 44.29C3.32 45.38 4.81 45.99 6.36 46L48.63 46C50.18 45.99 51.67 45.38 52.78 44.29C53.88 43.19 54.5 41.71 54.5 40.16L54.5 16.83ZM2.84 22.66L2.84 40.16C2.84 41.09 3.21 41.98 3.87 42.64C4.2 42.96 4.59 43.22 5.02 43.4C5.44 43.57 5.9 43.66 6.36 43.66L48.63 43.66C49.56 43.66 50.46 43.29 51.12 42.64C51.44 42.31 51.7 41.93 51.88 41.5C52.06 41.08 52.15 40.62 52.15 40.16L52.15 16.83C52.15 15.9 51.78 15.01 51.12 14.35C50.79 14.03 50.4 13.77 49.97 13.59C49.55 13.42 49.09 13.33 48.63 13.33L6.36 13.33C5.43 13.33 4.53 13.7 3.87 14.35C3.55 14.68 3.29 15.06 3.11 15.49C2.93 15.91 2.84 16.37 2.84 16.83L2.84 20.33L48.63 20.33C48.94 20.33 49.24 20.45 49.46 20.67C49.68 20.89 49.8 21.19 49.8 21.5C49.8 21.8 49.68 22.1 49.46 22.32C49.24 22.54 48.94 22.66 48.63 22.66L2.84 22.66Z" fill="#000000" fill-opacity="1.000000" fill-rule="evenodd"/>
		<path id="Vector" d="M50.5 33.6C50.5 32.64 50.12 31.72 49.44 31.05C48.76 30.37 47.85 30 46.9 30L42.09 30C41.14 30 40.23 30.37 39.55 31.05C38.87 31.72 38.5 32.64 38.5 33.6L38.5 38.39C38.5 39.35 38.87 40.27 39.55 40.94C40.23 41.62 41.14 42 42.09 42L46.9 42C47.85 42 48.76 41.62 49.44 40.94C50.12 40.27 50.5 39.35 50.5 38.39L50.5 33.6ZM48.09 33.6L48.09 38.39C48.09 38.71 47.97 39.02 47.74 39.24C47.52 39.47 47.21 39.6 46.9 39.6L42.09 39.6C41.78 39.6 41.47 39.47 41.25 39.24C41.02 39.02 40.9 38.71 40.9 38.39L40.9 33.6C40.9 33.28 41.02 32.97 41.25 32.75C41.47 32.52 41.78 32.39 42.09 32.39L46.9 32.39C47.21 32.39 47.52 32.52 47.74 32.75C47.97 32.97 48.09 33.28 48.09 33.6Z" fill="#000000" fill-opacity="1.000000" fill-rule="evenodd"/>
	</g>
</svg>
